# xmcd
#
# Track frame offsets:
#	150
#	12333
#	25175
#	39497
#	51357
#	65101
#	78784
#	89244
#	101402
#	114923
#	121567
#	131769
#	140801
#	151079
#	160936
#	168375
#	180820
#	191969
#	203543
#	214458
#	226973
#	240714
#	254508
#	267293
#	279109
#	291686
#
# Disc length: 4048 seconds
#
# Revision: 0
# Processed by: cddbd v1.5.2PL0 Copyright (c) Steve Scherf et al.
# Submitted via: EZCDAudioConverter 2.2.2.1
#
DISCID=760fce1a
DTITLE=Rosalie Allen - The Hillbilly Yodel Star Of The 1940s
DYEAR=1900
DGENRE=Country
TTITLE0=Yodel Boogie (1949)
TTITLE1=Aha! San Antone (1948)
TTITLE2=Take It Back And Change It For A Boy (1947)
TTITLE3=Guitar Polka (Old Monterey) (1946)
TTITLE4=Never Trust A Man (1947)
TTITLE5=Me Go Where You Go, Amigo (1946)
TTITLE6=He Lived In Texas (And She Lived In Arkansas) (1948) [duet Billy Willi
TTITLE6=ams]
TTITLE7=If I'd Only Been True To You (1948)
TTITLE8=I Want To Be A Cowboy's Sweetheart (1946)
TTITLE9=Yodel Your Troubles Away (1944-45)
TTITLE10=When You're In Love (1944-45)
TTITLE11=Letters From Home (1944-45)
TTITLE12=You Ain't Got No Time For Me (1944-45)
TTITLE13=Along The Lonely Trail (1944-45)
TTITLE14=When A Cowgirl Is Happy (1944-45)
TTITLE15=Put Your Arms Around Me (1945) [Tex Grande and His Range Riders]
TTITLE16=Wide Rollin' Plains (1948)
TTITLE17=You Ain't Where You Come From Now (1948)
TTITLE18=Rose Of The Alamo (1946)
TTITLE19=Mama What'll I Do (1949)
TTITLE20=Hitler Lives (1947)
TTITLE21=I Can't Tell That Lie To My Heart (1947)
TTITLE22=Mountain Polka (1947)
TTITLE23=Believe Me, I'll Be Leaving You (1947)
TTITLE24=Don't Wait Too Long To Forgive (1945) [duet with Tex Grande]
TTITLE25=No Letter Today (1945) [voc. Tex Grande =Denver Darling]
EXTD=
EXTT0=
EXTT1=
EXTT2=
EXTT3=
EXTT4=
EXTT5=
EXTT6=
EXTT7=
EXTT8=
EXTT9=
EXTT10=
EXTT11=
EXTT12=
EXTT13=
EXTT14=
EXTT15=
EXTT16=
EXTT17=
EXTT18=
EXTT19=
EXTT20=
EXTT21=
EXTT22=
EXTT23=
EXTT24=
EXTT25=
PLAYORDER=
